<mxfile host="app.diagrams.net" agent="Mozilla/5.0 (Windows NT 10.0; Win64; x64) AppleWebKit/537.36 (KHTML, like Gecko) Chrome/138.0.0.0 Safari/537.36" version="24.7.7">
  <diagram name="Page-1" id="aJBTMrgDWlqIG_jo8pdC">
    <mxGraphModel dx="1841" dy="990" grid="1" gridSize="10" guides="1" tooltips="1" connect="1" arrows="1" fold="1" page="1" pageScale="1" pageWidth="850" pageHeight="1100" math="0" shadow="0">
      <root>
        <mxCell id="0" />
        <mxCell id="1" parent="0" />
        <mxCell id="6Rt5GFDChm4W8RmCD6KE-36" value="" style="rounded=1;whiteSpace=wrap;html=1;strokeColor=#b85450;fillColor=#f8cecc;" vertex="1" parent="1">
          <mxGeometry x="455" y="689" width="160" height="150" as="geometry" />
        </mxCell>
        <mxCell id="6Rt5GFDChm4W8RmCD6KE-7" value="" style="rounded=1;whiteSpace=wrap;html=1;strokeColor=#b17dff;" vertex="1" parent="1">
          <mxGeometry x="322.5" y="260" width="190" height="270" as="geometry" />
        </mxCell>
        <mxCell id="6Rt5GFDChm4W8RmCD6KE-9" style="edgeStyle=orthogonalEdgeStyle;rounded=0;orthogonalLoop=1;jettySize=auto;html=1;" edge="1" parent="1" source="6Rt5GFDChm4W8RmCD6KE-1" target="6Rt5GFDChm4W8RmCD6KE-3">
          <mxGeometry relative="1" as="geometry">
            <Array as="points">
              <mxPoint x="250" y="213" />
              <mxPoint x="250" y="213" />
            </Array>
          </mxGeometry>
        </mxCell>
        <mxCell id="6Rt5GFDChm4W8RmCD6KE-1" value="" style="outlineConnect=0;dashed=0;verticalLabelPosition=bottom;verticalAlign=top;align=center;html=1;shape=mxgraph.aws3.lambda_function;fillColor=#F58534;gradientColor=none;" vertex="1" parent="1">
          <mxGeometry x="150" y="174" width="69" height="72" as="geometry" />
        </mxCell>
        <mxCell id="6Rt5GFDChm4W8RmCD6KE-10" style="edgeStyle=orthogonalEdgeStyle;rounded=0;orthogonalLoop=1;jettySize=auto;html=1;" edge="1" parent="1" source="6Rt5GFDChm4W8RmCD6KE-2" target="6Rt5GFDChm4W8RmCD6KE-3">
          <mxGeometry relative="1" as="geometry">
            <Array as="points">
              <mxPoint x="280" y="336" />
              <mxPoint x="280" y="213" />
            </Array>
          </mxGeometry>
        </mxCell>
        <mxCell id="6Rt5GFDChm4W8RmCD6KE-2" value="" style="outlineConnect=0;dashed=0;verticalLabelPosition=bottom;verticalAlign=top;align=center;html=1;shape=mxgraph.aws3.lambda_function;fillColor=#F58534;gradientColor=none;" vertex="1" parent="1">
          <mxGeometry x="150" y="300" width="69" height="72" as="geometry" />
        </mxCell>
        <mxCell id="6Rt5GFDChm4W8RmCD6KE-3" value="" style="sketch=0;outlineConnect=0;fontColor=#232F3E;gradientColor=none;fillColor=#7AA116;strokeColor=none;dashed=0;verticalLabelPosition=bottom;verticalAlign=top;align=center;html=1;fontSize=12;fontStyle=0;aspect=fixed;pointerEvents=1;shape=mxgraph.aws4.bucket;" vertex="1" parent="1">
          <mxGeometry x="380" y="174" width="75" height="78" as="geometry" />
        </mxCell>
        <mxCell id="6Rt5GFDChm4W8RmCD6KE-4" value="" style="sketch=0;outlineConnect=0;fontColor=#232F3E;gradientColor=none;fillColor=#7AA116;strokeColor=none;dashed=0;verticalLabelPosition=bottom;verticalAlign=top;align=center;html=1;fontSize=12;fontStyle=0;aspect=fixed;pointerEvents=1;shape=mxgraph.aws4.bucket;" vertex="1" parent="1">
          <mxGeometry x="378.5" y="290" width="75" height="78" as="geometry" />
        </mxCell>
        <mxCell id="6Rt5GFDChm4W8RmCD6KE-5" value="" style="sketch=0;outlineConnect=0;fontColor=#232F3E;gradientColor=none;fillColor=#7AA116;strokeColor=none;dashed=0;verticalLabelPosition=bottom;verticalAlign=top;align=center;html=1;fontSize=12;fontStyle=0;aspect=fixed;pointerEvents=1;shape=mxgraph.aws4.bucket;" vertex="1" parent="1">
          <mxGeometry x="378.5" y="420" width="75" height="78" as="geometry" />
        </mxCell>
        <mxCell id="6Rt5GFDChm4W8RmCD6KE-6" value="" style="sketch=0;points=[[0,0,0],[0.25,0,0],[0.5,0,0],[0.75,0,0],[1,0,0],[0,1,0],[0.25,1,0],[0.5,1,0],[0.75,1,0],[1,1,0],[0,0.25,0],[0,0.5,0],[0,0.75,0],[1,0.25,0],[1,0.5,0],[1,0.75,0]];outlineConnect=0;fontColor=#232F3E;fillColor=#8C4FFF;strokeColor=#ffffff;dashed=0;verticalLabelPosition=bottom;verticalAlign=top;align=center;html=1;fontSize=12;fontStyle=0;aspect=fixed;shape=mxgraph.aws4.resourceIcon;resIcon=mxgraph.aws4.lake_formation;" vertex="1" parent="1">
          <mxGeometry x="377" y="511" width="78" height="78" as="geometry" />
        </mxCell>
        <mxCell id="6Rt5GFDChm4W8RmCD6KE-27" style="edgeStyle=orthogonalEdgeStyle;rounded=0;orthogonalLoop=1;jettySize=auto;html=1;" edge="1" parent="1" source="6Rt5GFDChm4W8RmCD6KE-8" target="6Rt5GFDChm4W8RmCD6KE-26">
          <mxGeometry relative="1" as="geometry" />
        </mxCell>
        <mxCell id="6Rt5GFDChm4W8RmCD6KE-8" value="" style="sketch=0;points=[[0,0,0],[0.25,0,0],[0.5,0,0],[0.75,0,0],[1,0,0],[0,1,0],[0.25,1,0],[0.5,1,0],[0.75,1,0],[1,1,0],[0,0.25,0],[0,0.5,0],[0,0.75,0],[1,0.25,0],[1,0.5,0],[1,0.75,0]];outlineConnect=0;fontColor=#232F3E;fillColor=#E7157B;strokeColor=#ffffff;dashed=0;verticalLabelPosition=bottom;verticalAlign=top;align=center;html=1;fontSize=12;fontStyle=0;aspect=fixed;shape=mxgraph.aws4.resourceIcon;resIcon=mxgraph.aws4.sqs;" vertex="1" parent="1">
          <mxGeometry x="600" y="160" width="50" height="50" as="geometry" />
        </mxCell>
        <mxCell id="6Rt5GFDChm4W8RmCD6KE-11" value="Scrape Cities" style="text;html=1;align=center;verticalAlign=middle;whiteSpace=wrap;rounded=0;" vertex="1" parent="1">
          <mxGeometry x="136.75" y="144" width="95.5" height="30" as="geometry" />
        </mxCell>
        <mxCell id="6Rt5GFDChm4W8RmCD6KE-12" value="Weather" style="text;html=1;align=center;verticalAlign=middle;whiteSpace=wrap;rounded=0;" vertex="1" parent="1">
          <mxGeometry x="154.5" y="270" width="60" height="30" as="geometry" />
        </mxCell>
        <mxCell id="6Rt5GFDChm4W8RmCD6KE-13" value="landing" style="text;html=1;align=center;verticalAlign=middle;whiteSpace=wrap;rounded=0;" vertex="1" parent="1">
          <mxGeometry x="386" y="144" width="60" height="30" as="geometry" />
        </mxCell>
        <mxCell id="6Rt5GFDChm4W8RmCD6KE-14" value="processed" style="text;html=1;align=center;verticalAlign=middle;whiteSpace=wrap;rounded=0;" vertex="1" parent="1">
          <mxGeometry x="387.5" y="260" width="60" height="30" as="geometry" />
        </mxCell>
        <mxCell id="6Rt5GFDChm4W8RmCD6KE-15" value="published" style="text;html=1;align=center;verticalAlign=middle;whiteSpace=wrap;rounded=0;" vertex="1" parent="1">
          <mxGeometry x="386" y="390" width="60" height="30" as="geometry" />
        </mxCell>
        <mxCell id="6Rt5GFDChm4W8RmCD6KE-16" value="" style="sketch=0;points=[[0,0,0],[0.25,0,0],[0.5,0,0],[0.75,0,0],[1,0,0],[0,1,0],[0.25,1,0],[0.5,1,0],[0.75,1,0],[1,1,0],[0,0.25,0],[0,0.5,0],[0,0.75,0],[1,0.25,0],[1,0.5,0],[1,0.75,0]];outlineConnect=0;fontColor=#232F3E;fillColor=#E7157B;strokeColor=#ffffff;dashed=0;verticalLabelPosition=bottom;verticalAlign=top;align=center;html=1;fontSize=12;fontStyle=0;aspect=fixed;shape=mxgraph.aws4.resourceIcon;resIcon=mxgraph.aws4.sqs;" vertex="1" parent="1">
          <mxGeometry x="600" y="240" width="50" height="50" as="geometry" />
        </mxCell>
        <mxCell id="6Rt5GFDChm4W8RmCD6KE-17" style="edgeStyle=orthogonalEdgeStyle;rounded=0;orthogonalLoop=1;jettySize=auto;html=1;entryX=0;entryY=0.5;entryDx=0;entryDy=0;entryPerimeter=0;" edge="1" parent="1" source="6Rt5GFDChm4W8RmCD6KE-3" target="6Rt5GFDChm4W8RmCD6KE-8">
          <mxGeometry relative="1" as="geometry">
            <Array as="points">
              <mxPoint x="540" y="213" />
              <mxPoint x="540" y="185" />
            </Array>
          </mxGeometry>
        </mxCell>
        <mxCell id="6Rt5GFDChm4W8RmCD6KE-18" style="edgeStyle=orthogonalEdgeStyle;rounded=0;orthogonalLoop=1;jettySize=auto;html=1;entryX=0;entryY=0.5;entryDx=0;entryDy=0;entryPerimeter=0;" edge="1" parent="1" source="6Rt5GFDChm4W8RmCD6KE-3" target="6Rt5GFDChm4W8RmCD6KE-16">
          <mxGeometry relative="1" as="geometry">
            <Array as="points">
              <mxPoint x="540" y="213" />
              <mxPoint x="540" y="265" />
            </Array>
          </mxGeometry>
        </mxCell>
        <mxCell id="6Rt5GFDChm4W8RmCD6KE-19" value="cities" style="text;html=1;align=center;verticalAlign=middle;whiteSpace=wrap;rounded=0;" vertex="1" parent="1">
          <mxGeometry x="595" y="138" width="60" height="30" as="geometry" />
        </mxCell>
        <mxCell id="6Rt5GFDChm4W8RmCD6KE-20" value="weather" style="text;html=1;align=center;verticalAlign=middle;whiteSpace=wrap;rounded=0;" vertex="1" parent="1">
          <mxGeometry x="595" y="216" width="60" height="30" as="geometry" />
        </mxCell>
        <mxCell id="6Rt5GFDChm4W8RmCD6KE-21" value="sqs" style="text;html=1;align=center;verticalAlign=middle;whiteSpace=wrap;rounded=0;" vertex="1" parent="1">
          <mxGeometry x="550" y="200" width="60" height="30" as="geometry" />
        </mxCell>
        <mxCell id="6Rt5GFDChm4W8RmCD6KE-23" style="edgeStyle=orthogonalEdgeStyle;rounded=0;orthogonalLoop=1;jettySize=auto;html=1;" edge="1" parent="1" source="6Rt5GFDChm4W8RmCD6KE-22" target="6Rt5GFDChm4W8RmCD6KE-4">
          <mxGeometry relative="1" as="geometry">
            <Array as="points">
              <mxPoint x="550" y="410" />
              <mxPoint x="550" y="350" />
            </Array>
          </mxGeometry>
        </mxCell>
        <mxCell id="6Rt5GFDChm4W8RmCD6KE-25" style="edgeStyle=orthogonalEdgeStyle;rounded=0;orthogonalLoop=1;jettySize=auto;html=1;" edge="1" parent="1" source="6Rt5GFDChm4W8RmCD6KE-22" target="6Rt5GFDChm4W8RmCD6KE-24">
          <mxGeometry relative="1" as="geometry" />
        </mxCell>
        <mxCell id="6Rt5GFDChm4W8RmCD6KE-22" value="" style="sketch=0;outlineConnect=0;fontColor=#232F3E;gradientColor=none;fillColor=#8C4FFF;strokeColor=none;dashed=0;verticalLabelPosition=bottom;verticalAlign=top;align=center;html=1;fontSize=12;fontStyle=0;aspect=fixed;pointerEvents=1;shape=mxgraph.aws4.glue_crawlers;" vertex="1" parent="1">
          <mxGeometry x="640" y="380" width="70" height="70" as="geometry" />
        </mxCell>
        <mxCell id="6Rt5GFDChm4W8RmCD6KE-24" value="" style="sketch=0;outlineConnect=0;fontColor=#232F3E;gradientColor=none;fillColor=#8C4FFF;strokeColor=none;dashed=0;verticalLabelPosition=bottom;verticalAlign=top;align=center;html=1;fontSize=12;fontStyle=0;aspect=fixed;pointerEvents=1;shape=mxgraph.aws4.glue_data_catalog;" vertex="1" parent="1">
          <mxGeometry x="639" y="511" width="72" height="78" as="geometry" />
        </mxCell>
        <mxCell id="6Rt5GFDChm4W8RmCD6KE-31" style="edgeStyle=orthogonalEdgeStyle;rounded=0;orthogonalLoop=1;jettySize=auto;html=1;" edge="1" parent="1" source="6Rt5GFDChm4W8RmCD6KE-26" target="6Rt5GFDChm4W8RmCD6KE-4">
          <mxGeometry relative="1" as="geometry">
            <Array as="points">
              <mxPoint x="810" y="185" />
              <mxPoint x="810" y="329" />
            </Array>
          </mxGeometry>
        </mxCell>
        <mxCell id="6Rt5GFDChm4W8RmCD6KE-26" value="" style="outlineConnect=0;dashed=0;verticalLabelPosition=bottom;verticalAlign=top;align=center;html=1;shape=mxgraph.aws3.lambda_function;fillColor=#F58534;gradientColor=none;" vertex="1" parent="1">
          <mxGeometry x="710" y="149" width="69" height="72" as="geometry" />
        </mxCell>
        <mxCell id="6Rt5GFDChm4W8RmCD6KE-30" style="edgeStyle=orthogonalEdgeStyle;rounded=0;orthogonalLoop=1;jettySize=auto;html=1;" edge="1" parent="1" source="6Rt5GFDChm4W8RmCD6KE-28" target="6Rt5GFDChm4W8RmCD6KE-4">
          <mxGeometry relative="1" as="geometry">
            <Array as="points">
              <mxPoint x="810" y="275" />
              <mxPoint x="810" y="329" />
            </Array>
          </mxGeometry>
        </mxCell>
        <mxCell id="6Rt5GFDChm4W8RmCD6KE-28" value="" style="outlineConnect=0;dashed=0;verticalLabelPosition=bottom;verticalAlign=top;align=center;html=1;shape=mxgraph.aws3.lambda_function;fillColor=#F58534;gradientColor=none;" vertex="1" parent="1">
          <mxGeometry x="710" y="239" width="69" height="72" as="geometry" />
        </mxCell>
        <mxCell id="6Rt5GFDChm4W8RmCD6KE-29" style="edgeStyle=orthogonalEdgeStyle;rounded=0;orthogonalLoop=1;jettySize=auto;html=1;entryX=0;entryY=0.5;entryDx=0;entryDy=0;entryPerimeter=0;" edge="1" parent="1" source="6Rt5GFDChm4W8RmCD6KE-16" target="6Rt5GFDChm4W8RmCD6KE-28">
          <mxGeometry relative="1" as="geometry" />
        </mxCell>
        <mxCell id="6Rt5GFDChm4W8RmCD6KE-32" value="" style="sketch=0;outlineConnect=0;fontColor=#232F3E;gradientColor=none;fillColor=#7AA116;strokeColor=none;dashed=0;verticalLabelPosition=bottom;verticalAlign=top;align=center;html=1;fontSize=12;fontStyle=0;aspect=fixed;pointerEvents=1;shape=mxgraph.aws4.bucket;" vertex="1" parent="1">
          <mxGeometry x="290" y="710" width="75" height="78" as="geometry" />
        </mxCell>
        <mxCell id="6Rt5GFDChm4W8RmCD6KE-44" style="edgeStyle=orthogonalEdgeStyle;rounded=0;orthogonalLoop=1;jettySize=auto;html=1;" edge="1" parent="1" source="6Rt5GFDChm4W8RmCD6KE-33" target="6Rt5GFDChm4W8RmCD6KE-32">
          <mxGeometry relative="1" as="geometry" />
        </mxCell>
        <mxCell id="6Rt5GFDChm4W8RmCD6KE-33" value="" style="sketch=0;points=[[0,0,0],[0.25,0,0],[0.5,0,0],[0.75,0,0],[1,0,0],[0,1,0],[0.25,1,0],[0.5,1,0],[0.75,1,0],[1,1,0],[0,0.25,0],[0,0.5,0],[0,0.75,0],[1,0.25,0],[1,0.5,0],[1,0.75,0]];outlineConnect=0;fontColor=#232F3E;fillColor=#8C4FFF;strokeColor=#ffffff;dashed=0;verticalLabelPosition=bottom;verticalAlign=top;align=center;html=1;fontSize=12;fontStyle=0;aspect=fixed;shape=mxgraph.aws4.resourceIcon;resIcon=mxgraph.aws4.cloudfront;" vertex="1" parent="1">
          <mxGeometry x="150" y="710" width="78" height="78" as="geometry" />
        </mxCell>
        <mxCell id="6Rt5GFDChm4W8RmCD6KE-34" value="" style="sketch=0;points=[[0,0,0],[0.25,0,0],[0.5,0,0],[0.75,0,0],[1,0,0],[0,1,0],[0.25,1,0],[0.5,1,0],[0.75,1,0],[1,1,0],[0,0.25,0],[0,0.5,0],[0,0.75,0],[1,0.25,0],[1,0.5,0],[1,0.75,0]];outlineConnect=0;fillColor=#3e1a18;strokeColor=#b85450;dashed=0;verticalLabelPosition=bottom;verticalAlign=top;align=center;html=1;fontSize=12;fontStyle=0;aspect=fixed;shape=mxgraph.aws4.resourceIcon;resIcon=mxgraph.aws4.api_gateway;" vertex="1" parent="1">
          <mxGeometry x="496" y="640" width="78" height="78" as="geometry" />
        </mxCell>
        <mxCell id="6Rt5GFDChm4W8RmCD6KE-35" value="" style="outlineConnect=0;dashed=0;verticalLabelPosition=bottom;verticalAlign=top;align=center;html=1;shape=mxgraph.aws3.lambda_function;fillColor=#F58534;gradientColor=none;" vertex="1" parent="1">
          <mxGeometry x="500.5" y="739" width="69" height="72" as="geometry" />
        </mxCell>
        <mxCell id="6Rt5GFDChm4W8RmCD6KE-47" style="edgeStyle=orthogonalEdgeStyle;rounded=0;orthogonalLoop=1;jettySize=auto;html=1;" edge="1" parent="1" source="6Rt5GFDChm4W8RmCD6KE-37" target="6Rt5GFDChm4W8RmCD6KE-24">
          <mxGeometry relative="1" as="geometry" />
        </mxCell>
        <mxCell id="6Rt5GFDChm4W8RmCD6KE-37" value="" style="sketch=0;points=[[0,0,0],[0.25,0,0],[0.5,0,0],[0.75,0,0],[1,0,0],[0,1,0],[0.25,1,0],[0.5,1,0],[0.75,1,0],[1,1,0],[0,0.25,0],[0,0.5,0],[0,0.75,0],[1,0.25,0],[1,0.5,0],[1,0.75,0]];outlineConnect=0;fillColor=#dae8fc;strokeColor=#6c8ebf;dashed=0;verticalLabelPosition=bottom;verticalAlign=top;align=center;html=1;fontSize=12;fontStyle=0;aspect=fixed;shape=mxgraph.aws4.resourceIcon;resIcon=mxgraph.aws4.athena;" vertex="1" parent="1">
          <mxGeometry x="664" y="736" width="78" height="78" as="geometry" />
        </mxCell>
        <mxCell id="6Rt5GFDChm4W8RmCD6KE-38" value="Athena" style="text;html=1;align=center;verticalAlign=middle;whiteSpace=wrap;rounded=0;" vertex="1" parent="1">
          <mxGeometry x="710" y="706" width="60" height="30" as="geometry" />
        </mxCell>
        <mxCell id="6Rt5GFDChm4W8RmCD6KE-40" style="edgeStyle=orthogonalEdgeStyle;rounded=0;orthogonalLoop=1;jettySize=auto;html=1;" edge="1" parent="1" source="6Rt5GFDChm4W8RmCD6KE-39" target="6Rt5GFDChm4W8RmCD6KE-33">
          <mxGeometry relative="1" as="geometry" />
        </mxCell>
        <mxCell id="6Rt5GFDChm4W8RmCD6KE-39" value="Actor" style="shape=umlActor;verticalLabelPosition=bottom;verticalAlign=top;html=1;outlineConnect=0;" vertex="1" parent="1">
          <mxGeometry x="60" y="719" width="30" height="60" as="geometry" />
        </mxCell>
        <mxCell id="6Rt5GFDChm4W8RmCD6KE-42" value="CloudFront" style="text;html=1;align=center;verticalAlign=middle;whiteSpace=wrap;rounded=0;" vertex="1" parent="1">
          <mxGeometry x="159" y="670" width="60" height="30" as="geometry" />
        </mxCell>
        <mxCell id="6Rt5GFDChm4W8RmCD6KE-43" value="S3 Website Bucket" style="text;html=1;align=center;verticalAlign=middle;whiteSpace=wrap;rounded=0;" vertex="1" parent="1">
          <mxGeometry x="280" y="670" width="76.5" height="30" as="geometry" />
        </mxCell>
        <mxCell id="6Rt5GFDChm4W8RmCD6KE-45" style="edgeStyle=orthogonalEdgeStyle;rounded=0;orthogonalLoop=1;jettySize=auto;html=1;entryX=0;entryY=0.25;entryDx=0;entryDy=0;entryPerimeter=0;" edge="1" parent="1" source="6Rt5GFDChm4W8RmCD6KE-32" target="6Rt5GFDChm4W8RmCD6KE-34">
          <mxGeometry relative="1" as="geometry" />
        </mxCell>
        <mxCell id="6Rt5GFDChm4W8RmCD6KE-46" style="edgeStyle=orthogonalEdgeStyle;rounded=0;orthogonalLoop=1;jettySize=auto;html=1;entryX=0;entryY=0.5;entryDx=0;entryDy=0;entryPerimeter=0;" edge="1" parent="1" source="6Rt5GFDChm4W8RmCD6KE-35" target="6Rt5GFDChm4W8RmCD6KE-37">
          <mxGeometry relative="1" as="geometry" />
        </mxCell>
        <mxCell id="6Rt5GFDChm4W8RmCD6KE-48" value="API Gateway" style="text;html=1;align=center;verticalAlign=middle;whiteSpace=wrap;rounded=0;" vertex="1" parent="1">
          <mxGeometry x="509.5" y="610" width="60" height="30" as="geometry" />
        </mxCell>
        <mxCell id="6Rt5GFDChm4W8RmCD6KE-50" value="" style="shape=image;html=1;verticalAlign=top;verticalLabelPosition=bottom;labelBackgroundColor=#ffffff;imageAspect=0;aspect=fixed;image=https://cdn1.iconfinder.com/data/icons/social-media-2106/24/social_media_social_media_logo_docker-128.png" vertex="1" parent="1">
          <mxGeometry x="200" y="170" width="40" height="40" as="geometry" />
        </mxCell>
        <mxCell id="6Rt5GFDChm4W8RmCD6KE-51" value="Lake Formation" style="text;html=1;align=center;verticalAlign=middle;whiteSpace=wrap;rounded=0;" vertex="1" parent="1">
          <mxGeometry x="350" y="589" width="117.75" height="30" as="geometry" />
        </mxCell>
        <mxCell id="6Rt5GFDChm4W8RmCD6KE-52" value="Glue Crawlers" style="text;html=1;align=center;verticalAlign=middle;whiteSpace=wrap;rounded=0;" vertex="1" parent="1">
          <mxGeometry x="617.5" y="350" width="115" height="30" as="geometry" />
        </mxCell>
        <mxCell id="6Rt5GFDChm4W8RmCD6KE-53" value="Glue Catalog" style="text;html=1;align=center;verticalAlign=middle;whiteSpace=wrap;rounded=0;" vertex="1" parent="1">
          <mxGeometry x="670" y="481" width="100" height="30" as="geometry" />
        </mxCell>
      </root>
    </mxGraphModel>
  </diagram>
</mxfile>
